<svg xmlns='http://www.w3.org/2000/svg' width='400' height='400' viewBox='0 0 400 400' xmlns:c2pa="http://c2pa.org/manifest"><metadata><c2pa:manifest>AAAWgmp1bWIAAAAeanVtZGMycGEAEQAQgAAAqgA4m3EDYzJwYQAAABZcanVtYgAAAEdqdW1kYzJtYQARABCAAACqADibcQN1cm46YzJwYTpiOWQwZTU4My1jYjBmLTQ5ZTQtYTIzMC05Nzc0OGY4ZjJmYjUAAAADl2p1bWIAAAApanVtZGMyYXMAEQAQgAAAqgA4m3EDYzJwYS5hc3NlcnRpb25zAAAAALxqdW1iAAAARGp1bWRjYm9yABEAEIAAAKoAOJtxE2MycGEuaW5ncmVkaWVudC52MwAAAAAYYzJzaLUnvYSHrrXrqEQI0Mz+t3cAAABwY2JvcqNpZGM6Zm9ybWF0bWltYWdlL3N2Zyt4bWxqaW5zdGFuY2VJRHgseG1wOmlpZDpmODRkZjc5Zi1hNTdjLTQ0MGMtOGM2Ni04NzkyZjA0YTlmNjNscmVsYXRpb25zaGlwaHBhcmVudE9mAAAB4mp1bWIAAABBanVtZGNib3IAEQAQgAAAqgA4m3ETYzJwYS5hY3Rpb25zLnYyAAAAABhjMnNo7p5QkyXV4HPOdyw//nuFHgAAAZljYm9yomdhY3Rpb25zgqJmYWN0aW9ua2MycGEub3BlbmVkanBhcmFtZXRlcnOha2luZ3JlZGllbnRzgaJjdXJseC1zZWxmI2p1bWJmPWMycGEuYXNzZXJ0aW9ucy9jMnBhLmluZ3JlZGllbnQudjNkaGFzaFggzDB8OfNHwVk+l9Z9vkin5zS8sgwhCdL6NbItPoo53TukZmFjdGlvbngdY29tLmFudGhyb3BpYy5jbGF1ZGUucHJvdmlkZWRqcGFyYW1ldGVyc6F4H2NvbS5hbnRocm9waWMub3JpZ2luLWNvbmZpZGVuY2VndW5rbm93bmtkZXNjcmlwdGlvbnhmQ2xhdWRlIHByb3ZpZGVkIHRoaXMgZmlsZSBhdCB0aGUgcmVxdWVzdCBvZiBhIHVzZXIgYW5kIG1heSBoYXZlIGNyZWF0ZWQgb3IgbW9kaWZpZWQgdGhlIGZpbGUgY29udGVudHMubXNvZnR3YXJlQWdlbnShZG5hbWVmQ2xhdWRlcmFsbEFjdGlvbnNJbmNsdWRlZPUAAADIanVtYgAAAEBqdW1kY2JvcgARABCAAACqADibcRNjMnBhLmhhc2guZGF0YQAAAAAYYzJzaOmqfGivA0ZfI0k/vfnNjjIAAACAY2JvcqVjYWxnZnNoYTI1NmNwYWRNAAAAAAAAAAAAAAAAAGRoYXNoWCBuyn+WWoZ2rt11mOLwixo9ukfnha3OwsmDhGdeaBxesWRuYW1lbmp1bWJmIG1hbmlmZXN0amV4Y2x1c2lvbnOBomVzdGFydBiWZmxlbmd0aBkeBAAAAj5qdW1iAAAAJ2p1bWRjMmNsABEAEIAAAKoAOJtxA2MycGEuY2xhaW0udjIAAAACD2Nib3KlY2FsZ2ZzaGEyNTZpc2lnbmF0dXJleE1zZWxmI2p1bWJmPS9jMnBhL3VybjpjMnBhOmI5ZDBlNTgzLWNiMGYtNDllNC1hMjMwLTk3NzQ4ZjhmMmZiNS9jMnBhLnNpZ25hdHVyZWppbnN0YW5jZUlEeCx4bXA6aWlkOjQ4MWI2ODFhLTllNWYtNDA1YS1iYmJhLTBmZDM5MzQyZTViZHJjcmVhdGVkX2Fzc2VydGlvbnODomN1cmx4LXNlbGYjanVtYmY9YzJwYS5hc3NlcnRpb25zL2MycGEuaW5ncmVkaWVudC52M2RoYXNoWCDMMHw580fBWT6X1n2+SKfnNLyyDCEJ0vo1si0+ijndO6JjdXJseCpzZWxmI2p1bWJmPWMycGEuYXNzZXJ0aW9ucy9jMnBhLmFjdGlvbnMudjJkaGFzaFggLJILB4CU9GFXnuU/1rDPHrWaytbb1PpmExUDdvPgwfKiY3VybHgpc2VsZiNqdW1iZj1jMnBhLmFzc2VydGlvbnMvYzJwYS5oYXNoLmRhdGFkaGFzaFggbG4rYX4GGqtZlpZ4g/9tFS9Qyuk6VorF7FiuMthGvOJ0Y2xhaW1fZ2VuZXJhdG9yX2luZm+jZG5hbWVvQW50aHJvcGljIEZpbGVzZ3ZlcnNpb25lMS4wLjBrc3BlY1ZlcnNpb25lMi40LjAAABA4anVtYgAAAChqdW1kYzJjcwARABCAAACqADibcQNjMnBhLnNpZ25hdHVyZQAAABAIY2JvctKEWQISogEmGCFZAgowggIGMIIBjaADAgECAhRA5aAK7sI50L64g/oGQgU9Z1UTADAKBggqhkjOPQQDAzBJMRcwFQYDVQQKEw5BbnRocm9waWMsIFBCQzEuMCwGA1UEAxMlQW50aHJvcGljIENvbnRlbnQgQ3JlZGVudGlhbHMgUm9vdCBDQTAeFw0yNjA4MDcxODQzNTZaFw0yODA4MDYxOTQzNTZaMEQxFzAVBgNVBAoTDkFudGhyb3BpYywgUEJDMSkwJwYDVQQDEyBBbnRocm9waWMgQ2xhdWRlIENvbnRlbnQgU2lnbmluZzBZMBMGByqGSM49AgEGCCqGSM49AwEHA0IABJh6CmvLUBgFFNU0vUKlOVtE6djd17L5SuwX0LemFisBM3dkd/3cyjxFA3Qo5S46fX0/ihY0VZ7mfb9KF703t5OjWDBWMA4GA1UdDwEB/wQEAwIHgDAVBgNVHSUEDjAMBgorBgEEAYPoXgIBMAwGA1UdEwEB/wQCMAAwHwYDVR0jBBgwFoAUzlHiBIFOZFsj+OPEz5o+nMHXXMIwCgYIKoZIzj0EAwMDZwAwZAIwMXMdFJ4BetLLVY7ORuE9noqbbAZOZn/aArXyTwFAZfKrPzxF2vPoJNf1+UCdg1XGAjBwX1zd9WGqYkqmL5SFqw1QySjr1zJfpJM9+1rdDwSPLMOPOjKuiXjoU/pUUeG9RwmhY3BhZFkNngAAAAAAAAAAAAAAAAAAAAAAAAAAAAAAAAAAAAAAAAAAAAAAAAAAAAAAAAAAAAAAAAAAAAAAAAAAAAAAAAAAAAAAAAAAAAAAAAAAAAAAAAAAAAAAAAAAAAAAAAAAAAAAAAAAAAAAAAAAAAAAAAAAAAAAAAAAAAAAAAAAAAAAAAAAAAAAAAAAAAAAAAAAAAAAAAAAAAAAAAAAAAAAAAAAAAAAAAAAAAAAAAAAAAAAAAAAAAAAAAAAAAAAAAAAAAAAAAAAAAAAAAAAAAAAAAAAAAAAAAAAAAAAAAAAAAAAAAAAAAAAAAAAAAAAAAAAAAAAAAAAAAAAAAAAAAAAAAAAAAAAAAAAAAAAAAAAAAAAAAAAAAAAAAAAAAAAAAAAAAAAAAAAAAAAAAAAAAAAAAAAAAAAAAAAAAAAAAAAAAAAAAAAAAAAAAAAAAAAAAAAAAAAAAAAAAAAAAAAAAAAAAAAAAAAAAAAAAAAAAAAAAAAAAAAAAAAAAAAAAAAAAAAAAAAAAAAAAAAAAAAAAAAAAAAAAAAAAAAAAAAAAAAAAAAAAAAAAAAAAAAAAAAAAAAAAAAAAAAAAAAAAAAAAAAAAAAAAAAAAAAAAAAAAAAAAAAAAAAAAAAAAAAAAAAAAAAAAAAAAAAAAAAAAAAAAAAAAAAAAAAAAAAAAAAAAAAAAAAAAAAAAAAAAAAAAAAAAAAAAAAAAAAAAAAAAAAAAAAAAAAAAAAAAAAAAAAAAAAAAAAAAAAAAAAAAAAAAAAAAAAAAAAAAAAAAAAAAAAAAAAAAAAAAAAAAAAAAAAAAAAAAAAAAAAAAAAAAAAAAAAAAAAAAAAAAAAAAAAAAAAAAAAAAAAAAAAAAAAAAAAAAAAAAAAAAAAAAAAAAAAAAAAAAAAAAAAAAAAAAAAAAAAAAAAAAAAAAAAAAAAAAAAAAAAAAAAAAAAAAAAAAAAAAAAAAAAAAAAAAAAAAAAAAAAAAAAAAAAAAAAAAAAAAAAAAAAAAAAAAAAAAAAAAAAAAAAAAAAAAAAAAAAAAAAAAAAAAAAAAAAAAAAAAAAAAAAAAAAAAAAAAAAAAAAAAAAAAAAAAAAAAAAAAAAAAAAAAAAAAAAAAAAAAAAAAAAAAAAAAAAAAAAAAAAAAAAAAAAAAAAAAAAAAAAAAAAAAAAAAAAAAAAAAAAAAAAAAAAAAAAAAAAAAAAAAAAAAAAAAAAAAAAAAAAAAAAAAAAAAAAAAAAAAAAAAAAAAAAAAAAAAAAAAAAAAAAAAAAAAAAAAAAAAAAAAAAAAAAAAAAAAAAAAAAAAAAAAAAAAAAAAAAAAAAAAAAAAAAAAAAAAAAAAAAAAAAAAAAAAAAAAAAAAAAAAAAAAAAAAAAAAAAAAAAAAAAAAAAAAAAAAAAAAAAAAAAAAAAAAAAAAAAAAAAAAAAAAAAAAAAAAAAAAAAAAAAAAAAAAAAAAAAAAAAAAAAAAAAAAAAAAAAAAAAAAAAAAAAAAAAAAAAAAAAAAAAAAAAAAAAAAAAAAAAAAAAAAAAAAAAAAAAAAAAAAAAAAAAAAAAAAAAAAAAAAAAAAAAAAAAAAAAAAAAAAAAAAAAAAAAAAAAAAAAAAAAAAAAAAAAAAAAAAAAAAAAAAAAAAAAAAAAAAAAAAAAAAAAAAAAAAAAAAAAAAAAAAAAAAAAAAAAAAAAAAAAAAAAAAAAAAAAAAAAAAAAAAAAAAAAAAAAAAAAAAAAAAAAAAAAAAAAAAAAAAAAAAAAAAAAAAAAAAAAAAAAAAAAAAAAAAAAAAAAAAAAAAAAAAAAAAAAAAAAAAAAAAAAAAAAAAAAAAAAAAAAAAAAAAAAAAAAAAAAAAAAAAAAAAAAAAAAAAAAAAAAAAAAAAAAAAAAAAAAAAAAAAAAAAAAAAAAAAAAAAAAAAAAAAAAAAAAAAAAAAAAAAAAAAAAAAAAAAAAAAAAAAAAAAAAAAAAAAAAAAAAAAAAAAAAAAAAAAAAAAAAAAAAAAAAAAAAAAAAAAAAAAAAAAAAAAAAAAAAAAAAAAAAAAAAAAAAAAAAAAAAAAAAAAAAAAAAAAAAAAAAAAAAAAAAAAAAAAAAAAAAAAAAAAAAAAAAAAAAAAAAAAAAAAAAAAAAAAAAAAAAAAAAAAAAAAAAAAAAAAAAAAAAAAAAAAAAAAAAAAAAAAAAAAAAAAAAAAAAAAAAAAAAAAAAAAAAAAAAAAAAAAAAAAAAAAAAAAAAAAAAAAAAAAAAAAAAAAAAAAAAAAAAAAAAAAAAAAAAAAAAAAAAAAAAAAAAAAAAAAAAAAAAAAAAAAAAAAAAAAAAAAAAAAAAAAAAAAAAAAAAAAAAAAAAAAAAAAAAAAAAAAAAAAAAAAAAAAAAAAAAAAAAAAAAAAAAAAAAAAAAAAAAAAAAAAAAAAAAAAAAAAAAAAAAAAAAAAAAAAAAAAAAAAAAAAAAAAAAAAAAAAAAAAAAAAAAAAAAAAAAAAAAAAAAAAAAAAAAAAAAAAAAAAAAAAAAAAAAAAAAAAAAAAAAAAAAAAAAAAAAAAAAAAAAAAAAAAAAAAAAAAAAAAAAAAAAAAAAAAAAAAAAAAAAAAAAAAAAAAAAAAAAAAAAAAAAAAAAAAAAAAAAAAAAAAAAAAAAAAAAAAAAAAAAAAAAAAAAAAAAAAAAAAAAAAAAAAAAAAAAAAAAAAAAAAAAAAAAAAAAAAAAAAAAAAAAAAAAAAAAAAAAAAAAAAAAAAAAAAAAAAAAAAAAAAAAAAAAAAAAAAAAAAAAAAAAAAAAAAAAAAAAAAAAAAAAAAAAAAAAAAAAAAAAAAAAAAAAAAAAAAAAAAAAAAAAAAAAAAAAAAAAAAAAAAAAAAAAAAAAAAAAAAAAAAAAAAAAAAAAAAAAAAAAAAAAAAAAAAAAAAAAAAAAAAAAAAAAAAAAAAAAAAAAAAAAAAAAAAAAAAAAAAAAAAAAAAAAAAAAAAAAAAAAAAAAAAAAAAAAAAAAAAAAAAAAAAAAAAAAAAAAAAAAAAAAAAAAAAAAAAAAAAAAAAAAAAAAAAAAAAAAAAAAAAAAAAAAAAAAAAAAAAAAAAAAAAAAAAAAAAAAAAAAAAAAAAAAAAAAAAAAAAAAAAAAAAAAAAAAAAAAAAAAAAAAAAAAAAAAAAAAAAAAAAAAAAAAAAAAAAAAAAAAAAAAAAAAAAAAAAAAAAAAAAAAAAAAAAAAAAAAAAAAAAAAAAAAAAAAAAAAAAAAAAAAAAAAAAAAAAAAAAAAAAAAAAAAAAAAAAAAAAAAAAAAAAAAAAAAAAAAAAAAAAAAAAAAAAAAAAAAAAAAAAAAAAAAAAAAAAAAAAAAAAAAAAAAAAAAAAAAAAAAAAAAAAAAAAAAAAAAAAAAAAAAAAAAAAAAAAAAAAAAAAAAAAAAAAAAAAAAAAAAAAAAAAAAAAAAAAAAAAAAAAAAAAAAAAAAAAAAAAAAAAAAAAAAAAAAAAAAAAAAAAAAAAAAAAAAAAAAAAAAAAAAAAAAAAAAAAAAAAAAAAAAAAAAAAAAAAAAAAAAAAAAAAAAAAAAAAAAAAAAAAAAAAAAAAAAAAAAAAAAAAAAAAAAAAAAAAAAAAAAAAAAAAAAAAAAAAAAAAAAAAAAAAAAAAAAAAAAAAAAAAAAAAAAAAAAAAAAAAAAAAAAAAAAAAAAAAAAAAAAAAAAAAAAAAAAAAAAAAAAAAAAAAAAAAAAAAAAAAAAAAAAAAAAAAAAAAAAAAAAAAAAAAAAAAAAAAAAAAAAAAAAAAAAAAAAAAAAAAAAAAAAAAAAAAAAAAAAAAAAAAAAAAAAAAAAAAAAAAAAAAAAAAAAAAAAAAAAAAAAAAAAAAAAAAAAAAAAAAAAAAAAAAAAAAAAAAAAAAAAAAAAAAAAAAAAAAAAAAAAAAAAAAAAAAAAAAAAAAAAAAAAAAAAAAAAAAAAAAAAAAAAAAAAAAAAAAAAAAAAAAAAAAAAAAAAAAAAAAAAAAAAAAAAAAAAAAAAAAAAAAAAAAAAAAAAAAAAAAAAAAAAAAAAAAAAAAAAAAAAAAAAAAAAAAAAAAAAAAAAAAAAAAAAAAAAAAAAAAAAAAAAAAAAAAAAAAAAAAAAAAAAAAAAAAAAAAAAAAAAAAAAAAAAAAAAAAAAAAAAAAAAAAAAAAAAAAAAAAAAAAAAAAAAAAAAAAAAAAAAAAAAAAAAAAAAAAAAAAAAAAAAAAAAAAAAAAAAAAAAAAAAAAAAAAAAAAAAAAAAAAAAAAAAAAAAAAAAAAAAAAAAAAAAAAAAAAAAAAAAAAAAAAAAAAAAAAAAAAAAAAAAAAAAAAAAAAAAAAAAAAAAAAAAAAAAAAAAAAAAAAAAAAAAAAAAAAAAAAAAAAAAAAAAAAAAAAAAAAAAAAAAAAAAAAAAAAAAAAAAAAAAAAAAAAAAAAAAAAAAAAAAAAAAAAAAAAAAAAAAAAAAAAAAAAAAAAAAAAAAAAAAAAAAAAAAAAAAAAAAAAAAAAAAAAAAAAAAAAAAAAAAAAAAAAAAAAAAAAAAAAAAAAAAAAAAAAAAAAAAAAAAAAAAAAAAAAAAAAAAAAAAAAAAAAAAAAAAAAAAAAAAAAAAAAAAAAAAAAAAAAAAAAAAAAAAAAAAAAAAAAAAAAAAAAAAAAAAAAAAAAAAAAAAAAAAAAAAAAAAAAAAAAAAAAAAAAAAAAAAAAAAAPZYQIfCVAZEz+XfuQ4jT5MviecN3KoCP0+HFCbE4jt3IISrasN/oXzfD/3zCCuDP2psUlfQI7zDeElisXuYSwBwCU0=</c2pa:manifest></metadata><rect width='400' height='400' fill='#7a442a'/><path d="M5.4,3.4 L60.6,3.4 Q62.8,3.4 62.8,5.6 L60.7,61.3 Q60.6,63.5 58.4,63.5 L5.4,64.1 Q3.2,64.1 3.2,61.9 L3.2,5.6 Q3.2,3.4 5.4,3.4 Z" fill="#c98a5c"/><path d="M71.8,3.4 L128.3,3.4 Q130.5,3.4 130.5,5.6 L131.0,63.7 Q131.1,65.9 128.9,65.8 L69.5,63.6 Q67.3,63.5 67.4,61.3 L69.5,5.6 Q69.6,3.4 71.8,3.4 Z" fill="#bb7048"/><path d="M139.4,3.4 L198.1,3.4 Q200.3,3.4 200.0,5.5 L193.6,59.5 Q193.3,61.7 191.1,61.9 L140.0,65.7 Q137.8,65.8 137.8,63.6 L137.2,5.6 Q137.2,3.4 139.4,3.4 Z" fill="#c98a5c"/><path d="M209.0,3.4 L260.7,3.4 Q262.9,3.4 262.8,5.6 L259.9,63.8 Q259.8,66.0 257.6,65.8 L202.0,61.9 Q199.8,61.7 200.1,59.5 L206.5,5.5 Q206.8,3.4 209.0,3.4 Z" fill="#a85632"/><path d="M271.9,3.3 L327.8,3.3 Q330.0,3.3 330.1,5.5 L331.5,57.3 Q331.6,59.5 329.4,59.7 L268.7,65.7 Q266.5,65.9 266.6,63.7 L269.5,5.5 Q269.7,3.3 271.9,3.3 Z" fill="#cf9468"/><path d="M339.0,3.3 L394.5,3.3 Q396.7,3.3 396.7,5.5 L396.7,65.2 Q396.7,67.4 394.5,67.1 L340.5,59.8 Q338.3,59.5 338.3,57.3 L336.8,5.5 Q336.8,3.3 339.0,3.3 Z" fill="#cf9468"/><path d="M5.5,70.9 L58.4,70.3 Q60.6,70.3 60.8,72.5 L64.4,128.9 Q64.6,131.1 62.4,131.2 L5.5,134.0 Q3.3,134.1 3.3,131.9 L3.3,73.1 Q3.3,70.9 5.5,70.9 Z" fill="#c07145"/><path d="M69.5,70.2 L128.8,72.4 Q131.0,72.4 130.8,74.6 L127.2,123.7 Q127.0,125.9 124.8,126.1 L73.4,130.8 Q71.2,131.0 71.1,128.8 L67.4,72.3 Q67.3,70.1 69.5,70.2 Z" fill="#cf9468"/><path d="M139.8,72.1 L190.9,68.3 Q193.1,68.2 193.3,70.4 L196.6,123.9 Q196.8,126.1 194.6,126.1 L135.9,125.7 Q133.7,125.7 133.8,123.5 L137.5,74.5 Q137.6,72.3 139.8,72.1 Z" fill="#cf9468"/><path d="M201.9,68.4 L257.4,72.3 Q259.6,72.5 259.7,74.7 L260.4,125.5 Q260.5,127.7 258.3,127.6 L205.5,126.2 Q203.3,126.2 203.2,124.0 L199.8,70.4 Q199.7,68.2 201.9,68.4 Z" fill="#c98a5c"/><path d="M268.5,72.3 L329.2,66.3 Q331.4,66.0 331.2,68.2 L326.0,127.4 Q325.8,129.6 323.6,129.5 L269.4,127.8 Q267.2,127.7 267.1,125.5 L266.4,74.7 Q266.3,72.5 268.5,72.3 Z" fill="#b5623a"/><path d="M340.4,66.4 L394.4,73.7 Q396.6,74.0 396.6,76.2 L396.6,127.3 Q396.6,129.5 394.4,129.5 L334.9,129.7 Q332.7,129.7 332.8,127.5 L338.0,68.3 Q338.2,66.1 340.4,66.4 Z" fill="#b06b47"/><path d="M5.6,140.7 L62.5,138.0 Q64.7,137.9 64.6,140.1 L63.6,195.9 Q63.5,198.1 61.3,198.2 L5.6,199.7 Q3.4,199.8 3.4,197.6 L3.4,143.0 Q3.4,140.8 5.6,140.7 Z" fill="#b06b47"/><path d="M73.4,137.4 L124.9,132.8 Q127.1,132.6 127.2,134.8 L129.9,195.8 Q130.0,198.0 127.8,198.0 L72.3,197.8 Q70.1,197.8 70.2,195.6 L71.2,139.8 Q71.3,137.6 73.4,137.4 Z" fill="#b5623a"/><path d="M135.9,132.4 L194.6,132.7 Q196.8,132.7 196.8,134.9 L196.2,192.4 Q196.2,194.6 194.0,194.7 L138.8,197.7 Q136.6,197.8 136.5,195.6 L133.8,134.6 Q133.7,132.4 135.9,132.4 Z" fill="#c98a5c"/><path d="M205.8,132.9 L258.6,134.3 Q260.8,134.4 261.0,136.6 L267.3,198.5 Q267.6,200.7 265.4,200.5 L205.2,194.9 Q203.0,194.7 203.0,192.5 L203.6,135.1 Q203.6,132.9 205.8,132.9 Z" fill="#a85632"/><path d="M269.6,134.7 L323.9,136.4 Q326.1,136.5 326.3,138.6 L332.6,196.3 Q332.9,198.5 330.7,198.6 L276.4,200.8 Q274.2,200.9 274.0,198.7 L267.6,136.8 Q267.4,134.6 269.6,134.7 Z" fill="#cf9468"/><path d="M334.9,136.3 L394.4,136.2 Q396.6,136.2 396.6,138.4 L396.6,192.9 Q396.6,195.1 394.4,195.2 L341.7,198.3 Q339.5,198.4 339.3,196.2 L332.9,138.5 Q332.7,136.3 334.9,136.3 Z" fill="#c07145"/><path d="M5.5,206.1 L61.3,204.5 Q63.4,204.5 63.4,206.7 L61.6,257.5 Q61.5,259.7 59.3,259.7 L5.5,261.0 Q3.3,261.0 3.3,258.8 L3.3,208.4 Q3.3,206.2 5.5,206.1 Z" fill="#b5623a"/><path d="M72.4,204.5 L127.8,204.6 Q130.0,204.6 130.1,206.8 L132.2,260.2 Q132.3,262.4 130.1,262.3 L70.4,259.8 Q68.2,259.7 68.3,257.5 L70.1,206.7 Q70.2,204.5 72.4,204.5 Z" fill="#a85632"/><path d="M139.0,204.5 L194.2,201.5 Q196.4,201.4 196.6,203.6 L199.6,260.1 Q199.7,262.3 197.5,262.3 L141.2,262.4 Q139.0,262.4 139.0,260.2 L136.9,206.8 Q136.8,204.6 139.0,204.5 Z" fill="#c98a5c"/><path d="M205.5,201.8 L265.6,207.4 Q267.8,207.6 267.8,209.8 L267.5,264.2 Q267.5,266.4 265.3,266.2 L208.7,262.6 Q206.5,262.5 206.4,260.3 L203.4,203.8 Q203.3,201.6 205.5,201.8 Z" fill="#bb7048"/><path d="M276.6,207.6 L330.8,205.3 Q333.0,205.3 332.8,207.4 L326.3,258.9 Q326.0,261.1 323.8,261.3 L276.2,266.2 Q274.0,266.4 274.0,264.2 L274.4,209.9 Q274.4,207.7 276.6,207.6 Z" fill="#b06b47"/><path d="M341.7,205.0 L394.4,201.9 Q396.6,201.8 396.6,204.0 L396.6,264.6 Q396.6,266.8 394.4,266.6 L334.6,261.1 Q332.4,260.9 332.7,258.7 L339.2,207.3 Q339.5,205.1 341.7,205.0 Z" fill="#b5623a"/><path d="M5.6,267.5 L59.4,266.2 Q61.6,266.2 61.8,268.4 L67.2,326.8 Q67.4,328.9 65.2,329.0 L5.6,329.5 Q3.4,329.6 3.4,327.4 L3.4,269.7 Q3.4,267.5 5.6,267.5 Z" fill="#9e5230"/><path d="M70.5,266.4 L130.1,269.0 Q132.3,269.0 132.1,271.2 L126.6,328.8 Q126.4,331.0 124.2,330.9 L76.3,329.1 Q74.1,329.0 73.9,326.8 L68.5,268.5 Q68.3,266.3 70.5,266.4 Z" fill="#b06b47"/><path d="M141.2,269.1 L197.5,269.0 Q199.7,269.0 199.7,271.2 L199.1,325.8 Q199.1,328.0 196.9,328.1 L135.4,330.9 Q133.2,331.0 133.4,328.8 L138.8,271.3 Q139.0,269.1 141.2,269.1 Z" fill="#cf9468"/><path d="M208.6,269.1 L265.1,272.7 Q267.3,272.9 267.1,275.1 L260.3,326.4 Q260.0,328.6 257.8,328.5 L208.0,328.0 Q205.8,328.0 205.9,325.8 L206.4,271.2 Q206.4,269.0 208.6,269.1 Z" fill="#c07145"/><path d="M276.0,272.7 L323.6,267.8 Q325.8,267.6 326.1,269.8 L333.6,330.0 Q333.9,332.2 331.7,332.1 L268.7,328.7 Q266.5,328.6 266.8,326.4 L273.6,275.1 Q273.8,273.0 276.0,272.7 Z" fill="#c07145"/><path d="M334.7,267.8 L394.5,273.2 Q396.7,273.4 396.7,275.6 L396.7,324.6 Q396.7,326.8 394.5,327.0 L342.7,332.0 Q340.6,332.2 340.3,330.0 L332.7,269.7 Q332.5,267.6 334.7,267.8 Z" fill="#c07145"/><path d="M5.6,336.4 L65.2,335.8 Q67.4,335.8 67.2,338.0 L61.5,394.4 Q61.3,396.6 59.1,396.6 L5.6,396.6 Q3.4,396.6 3.4,394.4 L3.4,338.6 Q3.4,336.4 5.6,336.4 Z" fill="#c98a5c"/><path d="M76.1,335.9 L124.1,337.7 Q126.3,337.8 126.3,340.0 L126.5,394.5 Q126.5,396.7 124.3,396.7 L69.9,396.7 Q67.7,396.7 68.0,394.5 L73.7,338.0 Q73.9,335.8 76.1,335.9 Z" fill="#c98a5c"/><path d="M135.0,337.6 L196.6,334.8 Q198.8,334.7 198.6,336.9 L193.0,394.5 Q192.7,396.6 190.5,396.6 L135.3,396.6 Q133.1,396.6 133.1,394.4 L132.9,339.9 Q132.8,337.7 135.0,337.6 Z" fill="#b5623a"/><path d="M207.8,334.7 L257.6,335.1 Q259.8,335.2 260.0,337.4 L265.6,394.4 Q265.8,396.6 263.6,396.6 L201.8,396.6 Q199.6,396.6 199.8,394.4 L205.4,336.8 Q205.6,334.6 207.8,334.7 Z" fill="#9e5230"/><path d="M268.7,335.4 L331.7,338.7 Q333.9,338.9 333.7,341.0 L327.5,394.5 Q327.3,396.7 325.1,396.7 L274.7,396.7 Q272.5,396.7 272.3,394.5 L266.8,337.5 Q266.5,335.3 268.7,335.4 Z" fill="#9e5230"/><path d="M342.8,338.6 L394.5,333.6 Q396.7,333.4 396.7,335.6 L396.7,394.4 Q396.7,396.6 394.5,396.6 L336.2,396.6 Q334.0,396.6 334.2,394.5 L340.3,341.0 Q340.6,338.8 342.8,338.6 Z" fill="#bb7048"/></svg>